<svg width="32" height="32" viewBox="0 0 32 32" fill="none" xmlns="http://www.w3.org/2000/svg">
<g clip-path="url(#clip0_33_9859)">
<path d="M15.7841 0C7.06686 0 0 7.06686 0 15.7841C0 23.1862 5.09637 29.3976 11.9713 31.1035V20.6077H8.71661V15.7841H11.9713V13.7056C11.9713 8.33337 14.4027 5.84327 19.6771 5.84327C20.6772 5.84327 22.4027 6.03963 23.1086 6.23535V10.6075C22.736 10.5684 22.0889 10.5488 21.2852 10.5488C18.6972 10.5488 17.6971 11.5293 17.6971 14.0782V15.7841H22.8528L21.967 20.6077H17.6971V31.4527C25.5128 30.5088 31.5688 23.8542 31.5688 15.7841C31.5682 7.06686 24.5013 0 15.7841 0Z" fill="white"/>
</g>
<defs>
<clipPath id="clip0_33_9859">
<rect width="31.5682" height="31.5682" fill="white"/>
</clipPath>
</defs>
</svg>
