<svg width="32" height="32" viewBox="0 0 32 32" fill="none" xmlns="http://www.w3.org/2000/svg">
<g clip-path="url(#clip0_33_9861)">
<path d="M31.2537 9.47041C31.2537 9.47041 30.9455 7.29393 29.996 6.33825C28.7936 5.08046 27.4495 5.07429 26.833 5.0003C22.4184 4.67969 15.7903 4.67969 15.7903 4.67969H15.7779C15.7779 4.67969 9.14985 4.67969 4.73523 5.0003C4.11866 5.07429 2.77455 5.08046 1.57224 6.33825C0.622732 7.29393 0.320614 9.47041 0.320614 9.47041C0.320614 9.47041 0 12.0292 0 14.5817V16.974C0 19.5266 0.314449 22.0854 0.314449 22.0854C0.314449 22.0854 0.622732 24.2618 1.56608 25.2175C2.76838 26.4753 4.34679 26.4321 5.04968 26.5678C7.5776 26.8083 15.7841 26.8822 15.7841 26.8822C15.7841 26.8822 22.4184 26.8699 26.833 26.5555C27.4495 26.4815 28.7936 26.4753 29.996 25.2175C30.9455 24.2618 31.2537 22.0854 31.2537 22.0854C31.2537 22.0854 31.5682 19.5328 31.5682 16.974V14.5817C31.5682 12.0292 31.2537 9.47041 31.2537 9.47041ZM12.5225 19.878V11.0057L21.0496 15.4573L12.5225 19.878Z" fill="white"/>
</g>
<defs>
<clipPath id="clip0_33_9861">
<rect width="31.5682" height="31.5682" fill="white"/>
</clipPath>
</defs>
</svg>
