<svg width="19" height="62" viewBox="0 0 19 62" fill="none" xmlns="http://www.w3.org/2000/svg">
<path d="M18.6968 0V62H10.4307C5.97978 55.7374 5.66185 49.7879 10.4307 45.0909C15.1996 40.3939 14.8817 33.8182 10.4307 29.7475C5.97978 25.6768 4.07223 19.101 10.4307 13.7778C15.5175 9.51919 12.5502 2.81818 10.4307 0H18.6968Z" fill="#D02731"/>
<path d="M0 62V0H8.43995C11.3836 3.75758 13.7624 8.76768 8.43995 13.7778C3.11753 18.7879 3.90578 25.0505 8.43995 29.7475C12.9741 34.4444 13.6091 39.7677 8.43995 45.0909C3.27085 50.4141 4.94278 56.9899 8.43995 62H0Z" fill="black"/>
</svg>
